<?xml version="1.0" encoding="UTF-8"?>
<!DOCTYPE svg PUBLIC "-//W3C//DTD SVG 1.1//EN" "http://www.w3.org/Graphics/SVG/1.1/DTD/svg11.dtd">
<svg xmlns="http://www.w3.org/2000/svg" version="1.1" width="512px" height="512px" style="shape-rendering:geometricPrecision; text-rendering:geometricPrecision; image-rendering:optimizeQuality; fill-rule:evenodd; clip-rule:evenodd" xmlns:xlink="http://www.w3.org/1999/xlink">
<g><path style="opacity:0.958" fill="#020102" d="M 469.5,79.5 C 466.944,80.5434 464.777,82.2101 463,84.5C 433.547,56.5428 398.714,46.0428 358.5,53C 341.633,56.7686 326.3,63.7686 312.5,74C 293.348,92.3185 274.348,110.819 255.5,129.5C 237.681,112.181 220.014,94.6806 202.5,77C 169.006,51.1687 132.006,44.502 91.5,57C 64.5167,67.1583 43.8501,84.6583 29.5,109.5C 26.2594,114.978 23.2594,120.645 20.5,126.5C 17.9795,125.215 15.3128,124.548 12.5,124.5C 10.5177,123.509 8.51767,122.509 6.5,121.5C 27.281,69.7417 65.6143,41.2417 121.5,36C 157.099,33.7554 188.432,44.0887 215.5,67C 229,80.5 242.5,94 256,107.5C 271.529,91.6376 287.362,76.1376 303.5,61C 342.535,34.0365 384.535,28.3698 429.5,44C 446.703,50.7631 461.703,60.7631 474.5,74C 472.627,75.7038 470.96,77.5372 469.5,79.5 Z"/></g>
<g><path style="opacity:1" fill="#f39ed6" d="M 469.5,79.5 C 473.194,82.5271 476.527,85.8604 479.5,89.5C 478.062,92.2425 476.062,94.5758 473.5,96.5C 485.719,112.485 493.052,130.485 495.5,150.5C 495.5,152.833 495.5,155.167 495.5,157.5C 470.833,157.5 446.167,157.5 421.5,157.5C 421.17,175.674 421.503,193.674 422.5,211.5C 433.988,212.495 445.655,212.828 457.5,212.5C 457.5,229.167 457.5,245.833 457.5,262.5C 457.5,263.167 457.5,263.833 457.5,264.5C 437.5,283.833 417.833,303.5 398.5,323.5C 383.878,324.633 369.211,324.8 354.5,324C 373.903,305.271 389.403,283.771 401,259.5C 414.356,222.414 405.19,192.247 373.5,169C 336.808,149.754 304.642,155.588 277,186.5C 263.404,204.212 257.904,224.212 260.5,246.5C 278.5,246.5 296.5,246.5 314.5,246.5C 313.377,237.315 314.877,228.648 319,220.5C 328.283,210.567 338.283,209.9 349,218.5C 355.129,225.773 356.129,233.773 352,242.5C 347.736,250.028 342.736,257.028 337,263.5C 313.454,288.391 288.121,311.058 261,331.5C 260.5,346.83 260.333,362.163 260.5,377.5C 284.169,377.333 307.836,377.5 331.5,378C 309.965,399.702 288.299,421.202 266.5,442.5C 194.535,371.035 122.701,299.368 51,227.5C 23.8441,191.94 16.6775,152.607 29.5,109.5C 43.8501,84.6583 64.5167,67.1583 91.5,57C 132.006,44.502 169.006,51.1687 202.5,77C 220.014,94.6806 237.681,112.181 255.5,129.5C 274.348,110.819 293.348,92.3185 312.5,74C 326.3,63.7686 341.633,56.7686 358.5,53C 398.714,46.0428 433.547,56.5428 463,84.5C 464.777,82.2101 466.944,80.5434 469.5,79.5 Z"/></g>
<g><path style="opacity:1" fill="#fefbfd" d="M 94.5,73.5 C 95.7498,73.5774 96.5831,74.244 97,75.5C 98.6842,79.7155 99.8509,84.0488 100.5,88.5C 96.392,89.4691 92.5586,91.1358 89,93.5C 86.5,89.1667 84,84.8333 81.5,80.5C 85.7675,77.8691 90.1008,75.5357 94.5,73.5 Z"/></g>
<g><path style="opacity:1" fill="#fefbfd" d="M 335.5,78.5 C 336.496,78.4142 337.329,78.7476 338,79.5C 340.293,83.2522 342.46,87.0856 344.5,91C 340.633,93.6979 336.633,96.1979 332.5,98.5C 329.624,94.7941 326.957,90.9608 324.5,87C 328.047,83.9454 331.714,81.112 335.5,78.5 Z"/></g>
<g><path style="opacity:0.985" fill="#030301" d="M 511.5,147.5 C 511.5,224.5 511.5,301.5 511.5,378.5C 493.5,378.5 475.5,378.5 457.5,378.5C 457.5,340.5 457.5,302.5 457.5,264.5C 457.5,263.833 457.5,263.167 457.5,262.5C 458.497,245.675 458.83,228.675 458.5,211.5C 446.5,211.5 434.5,211.5 422.5,211.5C 422.5,193.833 422.5,176.167 422.5,158.5C 447.167,158.5 471.833,158.5 496.5,158.5C 496.806,155.615 496.473,152.948 495.5,150.5C 493.052,130.485 485.719,112.485 473.5,96.5C 476.062,94.5758 478.062,92.2425 479.5,89.5C 481.436,88.741 483.269,87.741 485,86.5C 495.454,98.7359 502.787,112.736 507,128.5C 508.585,134.95 510.085,141.283 511.5,147.5 Z"/></g>
<g><path style="opacity:1" fill="#fefafd" d="M 67.5,89.5 C 70.9683,93.1405 74.3016,96.9739 77.5,101C 74.318,104.349 70.9846,107.516 67.5,110.5C 63.8333,107.333 60.1667,104.167 56.5,101C 59.6967,96.6384 63.3634,92.805 67.5,89.5 Z"/></g>
<g><path style="opacity:1" fill="#fefcfe" d="M 310.5,97.5 C 314.75,100.079 318.417,103.412 321.5,107.5C 318.5,111.167 315.167,114.5 311.5,117.5C 307.833,114.5 304.5,111.167 301.5,107.5C 304.522,104.147 307.522,100.813 310.5,97.5 Z"/></g>
<g><path style="opacity:1" fill="#eb7bc2" d="M 29.5,109.5 C 16.6775,152.607 23.8441,191.94 51,227.5C 122.701,299.368 194.535,371.035 266.5,442.5C 263.153,447.031 259.153,450.531 254.5,453C 182.306,381.139 110.473,308.973 39,236.5C 17.5451,207.893 10.3785,176.06 17.5,141C 14.8421,139.522 12.1755,138.355 9.5,137.5C 10.6566,133.207 11.6566,128.873 12.5,124.5C 15.3128,124.548 17.9795,125.215 20.5,126.5C 23.2594,120.645 26.2594,114.978 29.5,109.5 Z"/></g>
<g><path style="opacity:0.98" fill="#030201" d="M 9.5,137.5 C 12.1755,138.355 14.8421,139.522 17.5,141C 10.3785,176.06 17.5451,207.893 39,236.5C 110.473,308.973 182.306,381.139 254.5,453C 259.153,450.531 263.153,447.031 266.5,442.5C 288.299,421.202 309.965,399.702 331.5,378C 307.836,377.5 284.169,377.333 260.5,377.5C 260.333,362.163 260.5,346.83 261,331.5C 288.121,311.058 313.454,288.391 337,263.5C 342.736,257.028 347.736,250.028 352,242.5C 356.129,233.773 355.129,225.773 349,218.5C 338.283,209.9 328.283,210.567 319,220.5C 314.877,228.648 313.377,237.315 314.5,246.5C 296.5,246.5 278.5,246.5 260.5,246.5C 257.904,224.212 263.404,204.212 277,186.5C 304.642,155.588 336.808,149.754 373.5,169C 405.19,192.247 414.356,222.414 401,259.5C 389.403,283.771 373.903,305.271 354.5,324C 369.211,324.8 383.878,324.633 398.5,323.5C 402.167,323.5 405.833,323.5 409.5,323.5C 409.5,341.833 409.5,360.167 409.5,378.5C 390.497,378.333 371.497,378.5 352.5,379C 320.32,411.347 287.986,443.514 255.5,475.5C 180.514,401.014 105.68,326.347 31,251.5C 14.0228,231.063 3.52283,207.73 -0.5,181.5C -0.5,170.833 -0.5,160.167 -0.5,149.5C 0.5839,144.945 1.75057,140.278 3,135.5C 5.08707,136.397 7.25373,137.064 9.5,137.5 Z"/></g>
<g><path style="opacity:1" fill="#6e4861" d="M 495.5,150.5 C 496.473,152.948 496.806,155.615 496.5,158.5C 471.833,158.5 447.167,158.5 422.5,158.5C 422.5,176.167 422.5,193.833 422.5,211.5C 421.503,193.674 421.17,175.674 421.5,157.5C 446.167,157.5 470.833,157.5 495.5,157.5C 495.5,155.167 495.5,152.833 495.5,150.5 Z"/></g>
<g><path style="opacity:1" fill="#f6e23d" d="M 437.5,173.5 C 441.5,173.5 445.5,173.5 449.5,173.5C 449.5,176.833 449.5,180.167 449.5,183.5C 461.5,183.5 473.5,183.5 485.5,183.5C 485.5,238.5 485.5,293.5 485.5,348.5C 489.167,348.5 492.833,348.5 496.5,348.5C 496.5,353.167 496.5,357.833 496.5,362.5C 488.833,362.5 481.167,362.5 473.5,362.5C 473.5,307.167 473.5,251.833 473.5,196.5C 461.5,196.5 449.5,196.5 437.5,196.5C 437.5,188.833 437.5,181.167 437.5,173.5 Z"/></g>
<g><path style="opacity:1" fill="#f6eb8f" d="M 437.5,173.5 C 456.993,172.503 476.66,172.17 496.5,172.5C 496.5,231.167 496.5,289.833 496.5,348.5C 492.833,348.5 489.167,348.5 485.5,348.5C 485.5,293.5 485.5,238.5 485.5,183.5C 473.5,183.5 461.5,183.5 449.5,183.5C 449.5,180.167 449.5,176.833 449.5,173.5C 445.5,173.5 441.5,173.5 437.5,173.5 Z"/></g>
<g><path style="opacity:1" fill="#f0dc3c" d="M 340.5,174.5 C 317.995,181.001 301.995,195.001 292.5,216.5C 295.768,217.487 299.102,217.82 302.5,217.5C 300.737,221.978 299.737,226.645 299.5,231.5C 291.5,231.5 283.5,231.5 275.5,231.5C 279.15,196.683 298.317,177.35 333,173.5C 335.69,173.503 338.19,173.836 340.5,174.5 Z"/></g>
<g><path style="opacity:1" fill="#f7ec91" d="M 340.5,174.5 C 368.268,177.309 385.435,192.309 392,219.5C 394.819,234.922 392.152,249.255 384,262.5C 365.973,290.37 344.473,315.37 319.5,337.5C 318.711,337.783 318.044,338.283 317.5,339C 342.831,339.5 368.164,339.667 393.5,339.5C 393.5,342.167 393.5,344.833 393.5,347.5C 358.833,347.5 324.167,347.5 289.5,347.5C 289.5,341.167 289.5,334.833 289.5,328.5C 309.764,310.739 329.264,292.072 348,272.5C 353.385,266.116 358.385,259.45 363,252.5C 375.771,228.904 370.271,211.07 346.5,199C 327.304,194.432 312.638,200.599 302.5,217.5C 299.102,217.82 295.768,217.487 292.5,216.5C 301.995,195.001 317.995,181.001 340.5,174.5 Z"/></g>
<g><path style="opacity:1" fill="#595115" d="M 437.5,196.5 C 449.5,196.5 461.5,196.5 473.5,196.5C 473.5,251.833 473.5,307.167 473.5,362.5C 472.501,307.669 472.168,252.669 472.5,197.5C 460.655,197.828 448.988,197.495 437.5,196.5 Z"/></g>
<g><path style="opacity:1" fill="#885978" d="M 422.5,211.5 C 434.5,211.5 446.5,211.5 458.5,211.5C 458.83,228.675 458.497,245.675 457.5,262.5C 457.5,245.833 457.5,229.167 457.5,212.5C 445.655,212.828 433.988,212.495 422.5,211.5 Z"/></g>
<g><path style="opacity:1" fill="#f5e13d" d="M 289.5,328.5 C 289.5,334.833 289.5,341.167 289.5,347.5C 324.167,347.5 358.833,347.5 393.5,347.5C 393.5,352.5 393.5,357.5 393.5,362.5C 354.167,362.5 314.833,362.5 275.5,362.5C 275.169,354.472 275.502,346.472 276.5,338.5C 280.713,334.907 285.046,331.574 289.5,328.5 Z"/></g>
<g><path style="opacity:1" fill="#746f44" d="M 319.5,337.5 C 344.167,338.167 368.833,338.833 393.5,339.5C 368.164,339.667 342.831,339.5 317.5,339C 318.044,338.283 318.711,337.783 319.5,337.5 Z"/></g>
</svg>
